<svg id="Capa_1" enable-background="new 0 0 512 512" height="512" viewBox="0 0 512 512" width="512" xmlns="http://www.w3.org/2000/svg"><g><path d="m452.6 59.4c-38.305-38.305-89.234-59.4-143.405-59.4-111.826 0-202.804 90.978-202.804 202.804 0 35.914 9.272 70.402 26.684 100.733l-109.422 91.678c-14.177 11.879-22.775 29.289-23.59 47.767-.813 18.478 6.221 36.576 19.299 49.655 13.079 13.079 31.177 20.113 49.656 19.3 18.478-.814 35.888-9.412 47.767-23.589l91.678-109.422c30.33 17.411 64.818 26.683 100.732 26.683 54.171 0 105.1-21.095 143.405-59.4s59.4-89.234 59.4-143.405c0-54.17-21.094-105.099-59.4-143.404zm-358.811 409.681c-6.584 7.858-15.849 12.434-26.09 12.885-10.242.451-19.874-3.293-27.123-10.542s-10.992-16.88-10.541-27.122c.451-10.241 5.027-19.507 12.885-26.091l19.985-16.744 47.629 47.629zm36.086-43.07-43.885-43.886 64.011-53.631c4.882 6.158 10.149 12.074 15.79 17.714 5.641 5.641 11.556 10.908 17.715 15.791zm301.512-101.015c-32.638 32.638-76.033 50.613-122.192 50.613-46.158 0-89.553-17.975-122.192-50.613-32.638-32.638-50.613-76.034-50.614-122.192.002-95.285 77.522-172.804 172.806-172.804 46.158 0 89.553 17.975 122.192 50.613 32.639 32.639 50.613 76.034 50.613 122.192s-17.974 89.552-50.613 122.191z"/><path d="m386.864 139.729c-21.055-21.054-53.532-23.894-77.668-8.519-24.136-15.375-56.613-12.534-77.667 8.52-11.79 11.789-18.283 27.464-18.283 44.138-.001 16.673 6.492 32.348 18.282 44.137l77.668 77.668 77.668-77.668c24.337-24.338 24.337-63.938 0-88.276zm-21.214 67.062-56.455 56.455-56.455-56.455c-6.123-6.123-9.496-14.264-9.496-22.924s3.372-16.802 9.495-22.924c12.641-12.64 33.209-12.64 45.849 0l10.607 10.607 10.607-10.607c12.64-12.64 33.208-12.64 45.849 0 12.64 12.64 12.64 33.208-.001 45.848z"/></g></svg>